# xmcd CD database file
#
# Track frame offsets:
#	150
#	28800
#	48597
#	79169
#	113212
#	123320
#	158615
#	197474
#	238107
#
# Disc length: 3610 seconds
#
# Revision: 0
# Processed by: cddbd v1.5.2PL0 Copyright (c) Steve Scherf et al.
# Submitted via: CDex 1.51
#
DISCID=6f0e1809
DTITLE=Marshall - Jung - Ochsenbauer - Night Bird - Thoughts On Chet Baker
DYEAR=2013
DGENRE=Jazz
TTITLE0=Broken Wing
TTITLE1=Have You Met Miss Jones
TTITLE2=My Funny Valentine
TTITLE3=Love Vibrations
TTITLE4=There Will Never Be Another You
TTITLE5=Red´s Blues
TTITLE6=Conception
TTITLE7=One One And Only Love
TTITLE8=Night Bird
EXTD=YEAR: 2013
EXTT0=
EXTT1=
EXTT2=
EXTT3=
EXTT4=
EXTT5=
EXTT6=
EXTT7=
EXTT8=
PLAYORDER=
